<svg xmlns="http://www.w3.org/2000/svg" width="16" height="16"><path id="dribbble-ft.svg" class="cls-1" d="M638.837 9782.4a7.9 7.9 0 00-.466-1.5 8.22 8.22 0 00-.738-1.36 8.093 8.093 0 00-.976-1.18 8.443 8.443 0 00-1.184-.98 7.971 7.971 0 00-8.947 0 8.434 8.434 0 00-1.183.98 8.093 8.093 0 00-.976 1.18 8.22 8.22 0 00-.738 1.36 7.9 7.9 0 00-.467 1.5 8.131 8.131 0 000 3.23 7.9 7.9 0 00.467 1.5 8.22 8.22 0 00.738 1.36 8.093 8.093 0 00.976 1.18 8.434 8.434 0 001.183.98 7.971 7.971 0 008.947 0 8.443 8.443 0 001.184-.98 8.093 8.093 0 00.976-1.18 8.22 8.22 0 00.738-1.36 7.9 7.9 0 00.466-1.5 8.082 8.082 0 000-3.23zm-1.007 1.55a15.962 15.962 0 00-4.759-.23 20.156 20.156 0 00-.601-1.34 8.874 8.874 0 003.807-2.7 6.794 6.794 0 011.553 4.27zm-2.317-5.06a7.451 7.451 0 01-3.569 2.47 34.349 34.349 0 00-2.554-3.98 6.581 6.581 0 011.61-.2 6.812 6.812 0 014.513 1.71zm-6.149-1.51a.039.039 0 00-.02.01.022.022 0 01.02-.01zm-1.279.46a40.568 40.568 0 012.537 3.93 25.7 25.7 0 01-6.308.84 6.831 6.831 0 013.771-4.77zm-3.917 6.17v-.21a25.209 25.209 0 007.015-.97c.2.38.383.77.554 1.16a2.662 2.662 0 00-.269.08 10.8 10.8 0 00-5.557 4.51 6.807 6.807 0 01-1.743-4.57zm6.832 6.84a6.8 6.8 0 01-4.352-1.57l.153.12a9.25 9.25 0 015.362-4.27c.015 0 .03-.01.045-.01a28.411 28.411 0 011.459 5.19 6.951 6.951 0 01-2.667.54zm3.818-1.17a29.625 29.625 0 00-1.33-4.88 9.871 9.871 0 014.258.3 6.827 6.827 0 01-2.928 4.58z" transform="translate(-623 -9776)"/></svg>