<svg xmlns="http://www.w3.org/2000/svg" width="63" height="61"><path id="speech.svg" d="M574 4571h-2v5a2.979 2.979 0 01-.061.6 2.9 2.9 0 01-.122.4c-.02.05-.03.11-.053.17a2.746 2.746 0 01-.176.32c-.035.06-.061.13-.1.19a3.65 3.65 0 01-.334.4c-.012.01-.02.03-.033.04a3 3 0 01-2.084.87c-.012 0-.024.01-.037.01a3 3 0 01-2.121-.88l-7.122-7.12H532a3 3 0 01-3-3v-30a3 3 0 013-3h42a3 3 0 013 3v30a3 3 0 01-3 3zm-15.485 3l6.326 6.32h.008A6 6 0 00569 4582v2a3 3 0 01-3 3h-31.757l-8.122 8.12a3 3 0 01-2.121.88c-.013 0-.024-.01-.037-.01a3 3 0 01-2.084-.87c-.013-.01-.021-.03-.033-.04a2.99 2.99 0 01-.334-.41 1.69 1.69 0 01-.1-.18 3.64 3.64 0 01-.177-.32c-.023-.06-.033-.12-.053-.17a2.627 2.627 0 01-.183-1v-6h-4a3 3 0 01-3-3v-34a3 3 0 013-3h9v21a6 6 0 006 6h26.515z" transform="translate(-514 -4535)" fill="#95e1d3" fill-rule="evenodd"/></svg>