<svg xmlns="http://www.w3.org/2000/svg" width="10" height="16.03"><path id="tumblr-ft.svg" class="cls-1" d="M666.009 9791.15a9.526 9.526 0 01-1.849.67 7.785 7.785 0 01-1.789.2 4.728 4.728 0 01-1.718-.28 4.1 4.1 0 01-1.431-.79 2.892 2.892 0 01-.823-1.09 4.784 4.784 0 01-.228-1.68v-5.61h-2.164v-2.27a5.566 5.566 0 001.8-.88 4.389 4.389 0 001.075-1.37 6.3 6.3 0 00.558-2.04h2.26v3.7h3.682v2.86H661.7v4.1a7.024 7.024 0 00.086 1.73 1.494 1.494 0 00.607.69 2.32 2.32 0 001.209.32 4.31 4.31 0 002.406-.79v2.53z" transform="translate(-656 -9776)"/></svg>