<svg xmlns="http://www.w3.org/2000/svg" width="30" height="30"><path id="work-icon.svg" d="M735 6994a1.5 1.5 0 01-1 1.41v1.68a1.5 1.5 0 11-1.908 1.91h-1.684a1.491 1.491 0 01-2.816 0h-1.684a1.491 1.491 0 01-2.816 0h-1.684a1.491 1.491 0 01-2.816 0h-1.684a1.491 1.491 0 01-2.816 0h-1.684a1.491 1.491 0 01-2.816 0h-1.684a1.5 1.5 0 11-1.908-1.91v-1.68a1.494 1.494 0 010-2.82v-1.68a1.494 1.494 0 010-2.82v-1.68a1.494 1.494 0 010-2.82v-1.68a1.494 1.494 0 010-2.82v-1.68a1.494 1.494 0 010-2.82v-1.68a1.5 1.5 0 111.908-1.91h1.684a1.491 1.491 0 012.816 0h1.684a1.491 1.491 0 012.816 0h1.684a1.491 1.491 0 012.816 0h1.684a1.491 1.491 0 012.816 0h1.684a1.491 1.491 0 012.816 0h1.684a1.5 1.5 0 111.908 1.91v1.68a1.494 1.494 0 010 2.82v1.68a1.494 1.494 0 010 2.82v1.68a1.494 1.494 0 010 2.82v1.68a1.494 1.494 0 010 2.82v1.68a1.5 1.5 0 011 1.41zm-4-20h-22v22h22v-22zm-13 16l7-8.5 4.5 7v6h-19l6-6zm-3-7a3 3 0 113-3 3 3 0 01-3 3z" transform="translate(-705 -6970)" fill="#fff" fill-rule="evenodd"/></svg>